# xmcd CD database file
# Copyright (C) 1997 Ti Kan
#
# Track frame offsets:
#  183
#  13000
#  25220
#  38605
#  49275
#  60523
#  72345
#  85830
#  98183
#  108760
#  121265
#  132213
#  144350
#  158228
#  167580
#  181523
#
# Disc length: 2574 seconds
#
# Revision: 1
# Processed by: cddbd v1.4b41PL1 Copyright (c) Steve Scherf et al.
# Submitted via: CDWizzard Release:4.31
#
DISCID=c40a0c10
DTITLE=Various Artist - Duke-Peacock's Greatest Hits
DYEAR=1900
DGENRE=
TTITLE0=Hound Dog
TTITLE1=I'm Gonna Play The Hony Tonks
TTITLE2=The Clock
TTITLE3=Pack Fair And Square
TTITLE4=Pledging My Love
TTITLE5=Next Time You See Me
TTITLE6=Farther Up The Road
TTITLE7=Tell Me Why
TTITLE8=So Tough
TTITLE9=Dance With Me
TTITLE10=Gonzo
TTITLE11=I Pity The Fool
TTITLE12=Funny (How Time Slips Away)
TTITLE13=Treat Her Right
TTITLE14=Eight Men, Four Women
TTITLE15=Everlasting Love
EXTD=
EXTT0=Big Mama Thorton
EXTT1=Marie Adams
EXTT2=Johnny Ace
EXTT3=Big Walter Price
EXTT4=Johnny Ace
EXTT5=Junior Parker
EXTT6=Bobby Bland
EXTT7=Norman Fox and The Rob Roys
EXTT8=The Original Casuals
EXTT9=The El Torros
EXTT10=James Booker
EXTT11=Bobby Bland
EXTT12=Joe Hinton
EXTT13=Roy Head and The Traits
EXTT14=O.V. Wright
EXTT15=Carl Carlton
PLAYORDER=
